<svg xmlns="http://www.w3.org/2000/svg" viewBox="0 0 900 520" role="img" aria-labelledby="title desc"><title id="title">Spaceborne LiDAR figure placeholder</title><desc id="desc">A stylized satellite LiDAR and photogrammetry diagram.</desc><defs><linearGradient id="g" x1="0" x2="1" y1="0" y2="1"><stop offset="0" stop-color="#e7eef8"/><stop offset="1" stop-color="#f7f9fc"/></linearGradient></defs><rect width="900" height="520" rx="28" fill="url(#g)"/><g transform="translate(90 80)"><rect x="190" y="25" width="140" height="70" rx="12" fill="#ffffff" stroke="#0b2a4a" stroke-width="5"/><rect x="80" y="42" width="95" height="38" rx="7" fill="#d8e4e7" stroke="#0b2a4a" stroke-width="4"/><rect x="345" y="42" width="95" height="38" rx="7" fill="#d8e4e7" stroke="#0b2a4a" stroke-width="4"/><circle cx="260" cy="60" r="12" fill="#1f4e79"/><path d="M260 98 L185 332 M260 98 L260 332 M260 98 L335 332" stroke="#0b2a4a" stroke-width="4" stroke-dasharray="10 11" opacity="0.75"/></g><path d="M60 415 C210 330, 290 375, 390 318 S610 250, 840 370" fill="none" stroke="#1f4e79" stroke-width="9" stroke-linecap="round" opacity="0.65"/><g fill="#0b2a4a"><circle cx="274" cy="410" r="9"/><circle cx="350" cy="368" r="9"/><circle cx="444" cy="320" r="9"/><circle cx="585" cy="298" r="9"/><circle cx="694" cy="328" r="9"/></g><text x="90" y="452" font-family="Arial, sans-serif" font-size="24" font-weight="700" fill="#1f2933">ICESat-2 / ATLAS · control points · positioning</text><text x="90" y="484" font-family="Arial, sans-serif" font-size="17" fill="#64748b">Replace this SVG with a thesis figure or satellite-control-point map.</text></svg>
