<svg xmlns="http://www.w3.org/2000/svg" viewBox="0 0 900 520" role="img" aria-labelledby="title desc"><title id="title">Spectral biodiversity figure placeholder</title><desc id="desc">A stylized figure for imaging spectroscopy and biodiversity remote sensing.</desc><defs><linearGradient id="g" x1="0" x2="1" y1="0" y2="1"><stop offset="0" stop-color="#e7eef8"/><stop offset="1" stop-color="#f7f9fc"/></linearGradient></defs><rect width="900" height="520" rx="28" fill="url(#g)"/><rect x="68" y="62" width="764" height="340" rx="18" fill="#ffffff" stroke="#d8e4e7"/><path d="M115 332 C170 205, 220 240, 275 170 S385 130, 445 225 S555 365, 620 230 S725 115, 780 180" fill="none" stroke="#0b2a4a" stroke-width="8" stroke-linecap="round"/><path d="M115 360 C175 330, 230 345, 290 300 S415 220, 500 285 S650 380, 780 260" fill="none" stroke="#1f4e79" stroke-width="7" stroke-linecap="round" opacity="0.88"/><g fill="#0b2a4a" opacity="0.86"><circle cx="162" cy="292" r="10"/><circle cx="265" cy="176" r="10"/><circle cx="444" cy="224" r="10"/><circle cx="620" cy="230" r="10"/><circle cx="742" cy="139" r="10"/></g><text x="90" y="444" font-family="Arial, sans-serif" font-size="24" font-weight="700" fill="#1f2933">Imaging spectroscopy · spectral diversity · biodiversity</text><text x="90" y="476" font-family="Arial, sans-serif" font-size="17" fill="#64748b">Replace this SVG with a paper figure, poster crop, or field image.</text></svg>
