<svg xmlns="http://www.w3.org/2000/svg" viewBox="0 0 900 520" role="img" aria-labelledby="title desc"><title id="title">Forest structure figure placeholder</title><desc id="desc">A stylized forest canopy and LiDAR vertical structure diagram.</desc><defs><linearGradient id="g" x1="0" x2="1" y1="0" y2="1"><stop offset="0" stop-color="#f7f9fc"/><stop offset="1" stop-color="#e7eef8"/></linearGradient></defs><rect width="900" height="520" rx="28" fill="url(#g)"/><g opacity="0.96"><path d="M85 390 C160 220, 265 198, 340 388" fill="#d8ead9"/><path d="M245 390 C340 150, 485 135, 575 390" fill="#c9dfd2"/><path d="M505 390 C610 210, 720 170, 815 390" fill="#dceccf"/></g><g stroke="#0b2a4a" stroke-width="2" opacity="0.42"><line x1="150" y1="100" x2="150" y2="390"/><line x1="250" y1="82" x2="250" y2="390"/><line x1="350" y1="115" x2="350" y2="390"/><line x1="450" y1="70" x2="450" y2="390"/><line x1="550" y1="128" x2="550" y2="390"/><line x1="650" y1="90" x2="650" y2="390"/><line x1="750" y1="145" x2="750" y2="390"/></g><g fill="#0b2a4a" opacity="0.55"><circle cx="150" cy="122" r="5"/><circle cx="250" cy="100" r="5"/><circle cx="350" cy="154" r="5"/><circle cx="450" cy="92" r="5"/><circle cx="550" cy="158" r="5"/><circle cx="650" cy="112" r="5"/><circle cx="750" cy="176" r="5"/></g><rect x="72" y="385" width="756" height="24" rx="12" fill="#1f4e79" opacity="0.24"/><text x="88" y="452" font-family="Arial, sans-serif" font-size="24" font-weight="700" fill="#1f2933">LiDAR / TLS · canopy structure · phenology</text><text x="88" y="484" font-family="Arial, sans-serif" font-size="17" fill="#64748b">Replace this SVG with a canopy, TLS, CHM, or phenology figure.</text></svg>
